<?xml version="1.0" encoding="UTF-8" standalone="no"?>
<svg
   xmlns:frisk="https://github.com/MrFelixU/toys"
   xmlns:svg="http://www.w3.org/2000/svg"
   xmlns="http://www.w3.org/2000/svg"
   width="512"
   height="512"
   class="map"
   id="extmap"
   version="1.1">
   <style>
     text.countrynamelabel { font-family: sans-serif; font-size: 1em; font-weight: bold; color: black;}
     text.countryarmieslabel { font-family: sans-serif; font-size: 0.8em; font-weight: normal; fill: #000088; stroke-width:0.1em;}

   </style>
  <defs
     id="defs22" />
  <path
     d="m 130.79222,131.8093 c 22.033,-17.191 90.182,-6.603 120.576,-7.627 69.2,-2.331 122.712,7.384 124.573,9.806 4.603,5.989 16.452,73.265 15.617,99.513 -1.113,34.999 19.106,65.88 -13.074,104.234 -2.056,2.451 -13.482,10.697 -17.07,11.622 -16.034,4.135 -32.472,8.112 -49.03,7.99 -49.251,-0.364 -98.51,-3.946 -147.454,-9.442 -8.579,-0.963 -30.267,-4.592 -47.94,-38.861 -18.351003,-35.584 -37.165003,-140.674 13.802,-177.235 z"
     style="fill:#0062ff;stroke:#000000"
     id="path3784" />
  <rect
     id="country001"
     x="153.85222"
     y="139.9803"
     width="100"
     height="100"
     class="country"
     style="fill:#ffee00;stroke:none"
     frisk:name="Galbenia"
 />
  <rect
     id="country002"
     x="253.85222"
     y="139.9803"
     width="100"
     height="100"
     class="country"
     style="fill:#d24d4d;stroke:none"
     frisk:name="Roscata"
 />
  <rect
     id="country003"
     x="153.85222"
     y="239.9803"
     width="100"
     height="100"
     class="country"
     style="fill:#ffee99;stroke:none"
     frisk:name="Crema"
      />
  <rect
     id="country004"
     x="253.85222"
     y="239.9803"
     width="100"
     height="100"
     class="country"
     style="fill:#219c05;stroke:none"
     frisk:name="Verdenia"
     />
     <text
       class="countrynamelabel"     x="173.6321"
        y="185"
        id="country001-name">Galbenia</text>
     <text
       class="countrynamelabel"     x="278.45697"
        y="185"
        id="country002-name">Roscata</text>
     <text
       class="countrynamelabel"     x="176.05879"
        y="285"
        id="country003-name">Crema</text>
     <text
       class="countrynamelabel"     x="274.67371"
        y="285"
        id="country004-name">Verdenia</text>
    <text
      class="countryarmieslabel"     x="173.6321"
       y="200"
       id="country001-armies"></text>
    <text
      class="countryarmieslabel"     x="278.45697"
       y="200"
       id="country002-armies"></text>
    <text
      class="countryarmieslabel"     x="176.05879"
       y="300"
       id="country003-armies"></text>
    <text
      class="countryarmieslabel"     x="274.67371"
       y="300"
       id="country004-armies"></text>
</svg>
